<?xml version="1.0" standalone="no"?>
<!DOCTYPE svg PUBLIC "-//W3C//DTD SVG 20010904//EN"
 "http://www.w3.org/TR/2001/REC-SVG-20010904/DTD/svg10.dtd">
<svg version="1.0" xmlns="http://www.w3.org/2000/svg"
 width="50.000000pt" height="50.000000pt" viewBox="0 0 626.000000 625.000000"
 preserveAspectRatio="xMidYMid meet">
<metadata>
Created by potrace 1.16, written by Peter Selinger 2001-2019
</metadata>
<g transform="translate(0.000000,625.000000) scale(0.100000,-0.100000)"
fill="#000000" stroke="none">
<path d="M2926 5634 c-253 -46 -523 -195 -742 -410 -62 -61 -90 -96 -117 -154
-112 -230 -134 -528 -60 -777 35 -119 42 -158 43 -228 1 -100 10 -133 42 -156
16 -12 32 -18 36 -14 4 3 9 59 12 123 5 106 9 123 38 182 38 76 39 97 11 151
-11 23 -18 43 -15 46 5 5 39 -58 50 -94 5 -15 -4 -48 -27 -101 -29 -65 -36
-95 -42 -178 -3 -54 -9 -106 -11 -115 -3 -9 -31 -36 -64 -60 -36 -26 -64 -55
-70 -73 -12 -36 -13 -93 -1 -101 5 -3 24 -48 41 -99 71 -215 177 -283 417
-270 157 10 188 -14 171 -130 -6 -45 -6 -78 1 -97 15 -44 3 -35 -19 14 -13 28
-20 65 -20 110 l0 67 -75 2 c-41 0 -81 1 -87 2 -16 1 -35 -104 -37 -199 -1
-67 1 -75 44 -145 24 -41 52 -97 61 -125 22 -64 98 -217 137 -275 42 -61 113
-136 152 -160 17 -11 81 -31 141 -46 163 -40 265 -36 446 17 55 16 79 30 127
75 88 81 180 231 234 379 14 39 43 101 66 140 37 63 41 76 41 138 0 37 -5 100
-12 138 -10 64 -13 70 -32 65 -12 -3 -51 -6 -88 -6 l-68 0 0 -70 c0 -58 -19
-140 -32 -140 -2 0 -4 47 -6 105 l-2 105 32 20 c29 17 49 19 173 17 138 -2
141 -1 206 29 92 44 145 116 184 249 9 32 23 68 31 79 17 24 18 86 3 120 -6
13 -38 44 -71 67 -32 24 -60 52 -63 63 -2 12 -6 64 -9 116 -3 79 -9 106 -35
160 -38 79 -39 112 -5 176 39 75 49 77 15 4 -17 -36 -31 -71 -31 -79 0 -7 16
-48 35 -91 32 -71 35 -86 35 -171 0 -100 6 -139 22 -139 5 0 22 12 37 28 26
26 28 34 34 142 5 82 14 138 32 195 86 270 67 583 -50 815 -42 83 -93 140
-213 241 -219 183 -425 284 -656 324 -109 18 -284 18 -390 -1z m-102 -1418
c55 -32 92 -76 124 -146 38 -82 40 -139 8 -194 -30 -51 -107 -123 -153 -142
-57 -25 -212 -38 -303 -26 -97 12 -115 25 -156 115 -23 51 -29 76 -29 139 0
70 2 79 31 115 33 41 104 83 142 83 13 0 43 14 68 30 72 51 103 61 167 56 37
-3 72 -13 101 -30z m846 -10 c43 -26 92 -47 119 -51 36 -6 55 -16 92 -53 63
-63 76 -110 54 -195 -20 -77 -48 -137 -79 -166 -44 -41 -222 -51 -366 -20 -91
19 -220 151 -220 224 0 45 34 137 69 189 51 74 124 114 211 115 37 1 60 -8
120 -43z m-558 -475 c12 -20 12 -20 26 0 34 49 82 4 82 -77 0 -77 26 -201 50
-233 41 -58 10 -131 -55 -131 -34 0 -53 16 -77 64 l-15 30 -8 -25 c-20 -65
-79 -87 -129 -48 -33 26 -33 58 -2 112 23 39 52 188 53 270 1 53 50 78 75 38z
m478 -683 c0 -5 -4 -7 -9 -3 -6 3 -14 -3 -20 -12 -10 -17 -10 -17 -11 2 -1 32
-16 -2 -24 -54 -7 -43 -6 -43 19 -37 23 6 24 5 13 -13 -6 -11 -32 -25 -57 -31
-25 -7 -52 -14 -58 -16 -7 -2 -13 -18 -13 -37 0 -18 6 -39 13 -46 8 -9 8 -12
0 -7 -7 4 -13 -3 -16 -16 -2 -13 -5 5 -6 40 -1 58 -3 62 -24 62 -13 0 -32 -6
-43 -14 -10 -8 -29 -12 -41 -9 -13 3 -34 2 -48 -1 -20 -5 -25 -13 -25 -36 0
-16 -5 -32 -11 -35 -6 -4 -9 4 -7 22 3 27 1 28 -42 28 -44 0 -45 -1 -45 -32 0
-17 -3 -29 -7 -27 -3 2 -8 -2 -11 -8 -3 -7 -2 6 0 30 6 42 6 42 -28 43 l-34 1
34 11 33 11 -5 63 c-6 79 3 76 12 -4 6 -54 8 -58 39 -67 19 -5 45 -5 65 0 29
9 32 14 35 53 2 24 -2 57 -8 74 -8 25 -8 29 1 20 10 -10 16 -10 28 0 14 11 14
10 3 -5 -10 -12 -12 -32 -7 -68 6 -45 9 -50 33 -50 56 0 77 52 45 113 -13 26
-13 30 -1 20 8 -7 17 -11 20 -8 2 3 5 -3 5 -13 -1 -66 4 -83 26 -91 33 -13 49
13 45 76 -2 28 0 49 5 46 4 -2 7 -26 7 -54 0 -27 2 -49 4 -49 23 0 36 18 42
58 4 26 10 54 14 62 9 16 60 24 60 8z m-796 -43 c-3 -19 -3 -51 0 -70 6 -29
11 -35 32 -35 28 0 38 18 39 71 0 23 4 35 12 32 8 -3 8 -14 2 -36 -5 -18 -9
-35 -9 -39 0 -19 43 -48 69 -48 27 0 29 3 33 48 3 26 0 53 -5 60 -7 9 -6 11 7
6 13 -5 15 -14 10 -39 -11 -58 3 -93 39 -101 18 -4 26 -9 20 -11 -7 -3 -13
-18 -13 -33 0 -16 -5 -32 -11 -36 -9 -5 -10 3 -5 29 6 30 3 38 -13 46 -26 14
-71 14 -71 0 0 -6 -7 -3 -16 5 -18 19 -59 30 -73 21 -6 -3 -12 -32 -13 -63
l-1 -57 -6 64 -6 64 -47 12 c-51 13 -78 30 -78 50 0 8 -4 15 -9 17 -5 2 -3 9
5 16 12 11 14 9 14 -13 0 -32 30 -35 31 -2 1 20 2 20 6 2 6 -24 22 -45 34 -45
5 0 9 20 9 44 0 43 7 76 17 76 2 0 1 -16 -3 -35z"/>
<path d="M1357 2906 c-141 -39 -175 -134 -102 -282 l37 -75 -47 -41 c-109 -96
-112 -204 -8 -318 66 -74 123 -85 251 -50 96 27 136 25 277 -10 169 -43 731
-223 870 -280 l30 -12 -40 -18 c-60 -26 -669 -235 -801 -275 -151 -46 -171
-45 -245 6 -72 51 -126 60 -190 32 -57 -26 -142 -103 -164 -149 -24 -51 -16
-119 21 -179 16 -26 39 -63 52 -83 30 -49 23 -78 -38 -162 -90 -124 -108 -173
-95 -256 27 -182 355 -212 426 -39 7 17 15 93 18 170 l6 140 122 61 c176 87
686 305 1137 486 l249 99 86 -32 c249 -93 1117 -460 1326 -560 l103 -49 4
-142 c3 -130 6 -147 28 -188 39 -69 93 -95 200 -95 74 0 91 3 130 27 59 34 90
89 90 157 0 66 -13 97 -94 215 -36 53 -66 105 -66 115 0 10 18 45 40 79 60 94
70 117 70 167 0 59 -16 89 -79 149 -107 99 -186 109 -290 36 -57 -40 -64 -43
-113 -37 -90 9 -977 312 -961 328 11 10 515 180 698 235 178 53 310 84 362 84
21 0 70 -9 108 -20 127 -36 190 -22 260 58 99 111 83 248 -40 328 -31 20 -31
24 4 79 35 55 55 133 46 175 -18 81 -111 135 -230 135 -61 -1 -79 -6 -140 -38
-84 -44 -163 -121 -237 -231 l-53 -79 -225 -108 c-329 -158 -681 -318 -923
-418 l-98 -40 -97 38 c-231 93 -574 248 -930 422 l-229 111 -49 75 c-60 93
-173 201 -245 236 -66 33 -155 42 -222 23z"/>
</g>
</svg>
